<?xml version="1.0" encoding="UTF-8"?>
<svg id="_レイヤー_1" data-name="レイヤー 1" xmlns="http://www.w3.org/2000/svg" viewBox="0 0 500 206.65">
  <defs>
    <style>
      .cls-1 {
        fill: #39427b;
      }
    </style>
  </defs>
  <path class="cls-1" d="M284.52,152.42c-2.34-1.21-2.77-2.07-2.77-5.84,0-9.43,.58-19.73,.73-22.47,.15-2.57,.59-4.47,1.75-4.47,1.31,0,1.46,1.54,1.46,2.93,0,2.22,.58,5.82,1.31,8.74,3.2,12.68,11.81,17.33,20.85,17.33,13.12,0,19.54-10.46,19.54-19.56,0-8.4-2.19-16.3-14.29-27.44l-6.71-6.19c-16.03-14.75-21.58-26.75-21.58-40.65,0-18.87,13.42-32.42,33.68-32.42,9.47,0,15.6,1.71,19.4,2.91,1.31,.35,2.04,.86,2.04,2.06,0,2.23-.59,7.2-.59,20.58,0,3.77-.43,5.15-1.59,5.15-1.03,0-1.47-1.03-1.47-3.08,0-1.55-.73-6.88-3.79-11.34-2.18-3.25-6.41-8.39-15.9-8.39-10.78,0-17.35,7.37-17.35,17.66,0,7.89,3.36,13.9,15.46,24.71l4.08,3.6c17.64,15.62,23.91,27.46,23.91,43.76,0,9.94-3.21,21.77-13.7,29.84-7.29,5.49-15.46,7.04-23.19,7.04-8.46,0-15.02-1.21-21.28-4.46"/>
  <path class="cls-1" d="M441.82,152.42c-2.33-1.21-2.77-2.07-2.77-5.84,0-9.43,.59-19.73,.73-22.47,.15-2.57,.59-4.47,1.75-4.47,1.31,0,1.45,1.54,1.45,2.93,0,2.22,.59,5.83,1.31,8.74,3.22,12.68,11.82,17.33,20.85,17.33,13.13,0,19.56-10.46,19.56-19.56,0-8.4-2.19-16.3-14.29-27.44l-6.72-6.19c-16.03-14.75-21.58-26.75-21.58-40.65,0-18.87,13.42-32.42,33.7-32.42,9.47,0,15.59,1.71,19.38,2.92,1.31,.34,2.04,.85,2.04,2.06,0,2.23-.58,7.21-.58,20.58,0,3.77-.44,5.15-1.59,5.15-1.03,0-1.46-1.03-1.46-3.08,0-1.55-.74-6.88-3.8-11.34-2.18-3.25-6.41-8.39-15.89-8.39-10.78,0-17.34,7.37-17.34,17.66,0,7.89,3.35,13.9,15.46,24.71l4.07,3.6c17.65,15.62,23.91,27.46,23.91,43.76,0,9.94-3.2,21.77-13.7,29.84-7.29,5.49-15.46,7.04-23.18,7.04-8.46,0-15.03-1.21-21.29-4.46"/>
  <path class="cls-1" d="M247.24,164.37c-11.85,13.58-29.42,19.43-36.6,20.5-2.2,.33-2.49-.29-2.52-1.55-.03-.86,.23-1.23,2.03-1.72,6.53-1.75,13.4-5.44,17.47-9.11,7.92-7.17,12.97-17.01,15.53-28.03,3.33-14.34,2.76-21.12,2.76-41.25,0-13.58-.66-59.57-.96-65.02-.28-5.78-1.44-8.52-6.22-9.7-1.15-.34-3.61-.51-5.63-.51-1.61,0-2.47-.34-2.47-1.54s1.03-1.52,3.18-1.52c7.67,0,16.79,.51,20.55,.51,3.48,0,12.58-.51,18.23-.51,2.03,0,3.04,.34,3.04,1.52s-.87,1.54-2.6,1.54c-1.59,0-2.47,.17-4.21,.51-3.91,.85-5.06,3.75-5.35,9.7-.28,5.44-.28,10.21-.28,36.07v15.77c0,4.55,.07,14.25,.07,20.78,0,23.09-3.03,38.66-16.03,53.56"/>
  <path class="cls-1" d="M366.02,74.56c0-25.94,0-30.73-.27-36.19-.29-5.81-1.45-8.53-6.25-9.73-1.16-.35-3.62-.51-5.66-.51-1.6,0-2.46-.34-2.46-1.54s1-1.54,3.19-1.54c7.69,0,16.83,.51,20.89,.51,5.95,0,14.37-.51,21.04-.51,18.15,0,24.67,7.17,26.99,9.72,3.2,3.6,7.27,11.29,7.27,20.32,0,24.24-15.1,41.32-35.7,41.32-.72,0-2.32,0-3.04-.17-.74-.17-1.75-.35-1.75-1.54,0-1.37,1.01-1.88,4.07-1.88,.71,0,1.45-.08,2.21-.25,7.82-1.71,17.23-12.05,17.23-27.93,0-5.63-.44-17.07-8.56-25.61-5.23-5.63-11.19-6.66-14.52-6.66-2.16,0-4.34,.17-5.65,.69-.72,.34-1.17,1.36-1.17,3.23V104.61c0,15.71,0,29.19,.73,36.54,.44,4.79,1.3,8.52,5.66,9.21,2.03,.34,5.21,.69,7.39,.69,1.6,0,2.32,.5,2.32,1.36,0,1.19-1.16,1.7-2.75,1.7-9.57,0-18.72-.51-22.49-.51-3.34,0-12.49,.51-18.29,.51-1.88,0-2.91-.51-2.91-1.7,0-.86,.58-1.36,2.33-1.36,2.18,0,3.92-.35,5.22-.69,2.9-.69,3.65-4.43,4.22-9.39,.71-7.17,.71-20.66,.71-36.36v-30.05"/>
  <path class="cls-1" d="M392.76,92.9l-11.4,.1v3.48s8.67,.19,13.95-.18l-2.56-3.39"/>
  <path class="cls-1" d="M158.19,92.5c-4.27-3.15-8.9-3.74-14.46-4.5-2.98-1.36,.5-2.54,2.65-2.81,4.58-.55,10.7,2.32,11.23,1.69,.56-.61-2.95-5.93-10.02-7.23-3.59-1-7.4-1.11-8.21-2.08-.29-1.15,9.14-2.21,10.82-2.44,2.41,.21,4.8,.66,7.08,1.29v-.97c-5.66-6.68-15.06-7.59-23.35-5.6l-.26-.28c2.14-2.6,3.86-3.31,7.5-4.62,3.61-1.29,8.06-1.5,12.42-1.36,.46,.01,1.92-.32,1.92-.32-.18-.89-1.06-1.4-2.4-2.19-7.15-4.31-17.01-2.83-23.67,1.63l-.26-.55c1.63-4.06,5.56-6.01,9.26-7.32,1.94-.34,6.11-1.35,7.79-1.84l-.65-.82c-6.42-3.58-15.87-2.04-21.84,1.06-1.87,.96-5.94,4.33-6.65,3.3,.79-5.8,8.34-8.59,8.16-9.77-2.33-.47-4.99,.08-7.27,.69-8.63,1.86-14.94,10.15-16.49,19.6-.91,.48-1.99-.02-2.95,.46,0,.87-.19,.53,.21,1.02l11.59,.1,.38,.41c0,.28-.02,.66-.42,1.22h-11.76c0,.67,.19,1.79,0,2.86h16.7l.54,.87-.27,.55-16.98,.11c0,1.31,.07,2.38,0,3.48,8.7,0,13.16,.2,21.46,.2l.33,1.03c0,.55-.65,.27-.91,.55h-20.88s0,3.51,0,3.51h26.62l.35,.76c.13,.35-.11,.69-.35,.76-9.46,.07-17.15,.02-26.62,0v3.77h33.06l.65,.97c-.13,.55-.78,1.24-1.31,.9h-38.9c-4.86,.02-9.66-3.37-11.79-5.83-2.8,3.68-3.76,4.53-6.78,8.17l-1.15-1.07c7.07-9.83,12.39-15.83,19.58-25.6-.53-1.17-.97-1.71-2.03-2.99-1.92-1.77-7.32-8.14-10.39-9.42-.58-.08-.96,.86-1.18,.97,0,0,1.18,4.93-.76,6.74-1.45,1.38-4.16,1.46-5.91,1.75-2.4,.27-3.53-.46-5.92-.12-2.14,.95-3.78,2.87-4.3,5.14-1.03,3.01-4.54,4.21-7.12,4.69-2.62,1.7-3.65,4.15-4.29,8.16-.88,5.28-.24,12.3-.24,12.3v58.15h110.36v-56.96l-1.92-2.17m-87.97,7.48l1.57-2.3,.58-.36,.57,.11,4.03,2.33h.42l3.93-2.28,.67-.15,.48,.29,1.62,2.25,.15,.67-.43,.75,.15-.29-2.54,1.27-.15,.3,.15,.29s1.24,.77,2.28,1.25l.57,.63-.13,.41-1.57,2.28-.58,.38-.58-.12-4.02-2.3h-.42l-3.93,2.28-.67,.15-.49-.27-1.6-2.26-.15-.67,.28-.47,2.54-1.28,.15-.29-.15-.29-2.55-1.28-.31-.6,.13-.41Zm0,11.41l1.57-2.3,.58-.36,.58,.12,4.01,2.3h.42l4-2.29,.6-.13,.48,.27,1.61,2.24,.15,.68-.28,.48-2.54,1.27-.15,.31,.15,.29,2.45,1.18,.37,.58-.11,.53h.01s-1.57,2.29-1.57,2.29l-.58,.37-.58-.11-4.02-2.32h-.42l-3.93,2.29-.67,.14-.49-.27-1.63-2.35-.13-.58,.44-.76-.16,.29,2.55-1.27,.15-.29-.15-.31-2.55-1.27-.31-.6,.13-.4Zm25.27,23.36l-.2,.52-6.87,7.85-.67,.29h-8.02l-.37,.37v5.49c0,.4-.33,.74-.72,.74h-13.32c-.4,0-.72-.34-.72-.74v-2.91c0-.4,.32-.72,.72-.72h9.67v-1.86l-.36-.37-7.91,.02c-.32-.14-.55-.22-.68-.27-.21-.21-6.28-7.16-6.8-8.01-.08-.13-.2-.87,.15-1.08,1-.6,3.59-.28,3.77-.35l.56,.22c.61,.61,3.99,4.72,4.35,5.02l.56,.44h6.13l.08-.59-.08-.39-9.56-9.08-.04-1.75,.05-.27,1.09-.45h21.88l.91,.6v1.39l-.63,1.03-8.79,8.54-.09,.39,.12,.59,6.47-.04,.26-.11,4.63-5.26,.64-.27c.51,0,2.91-.06,3.51,.02,.49,.05,.19,.81,.27,1Zm2.37-14.89l-.12,.24,.03,.15,.33,.22h3.61c.4,0,.73,.34,.73,.73v27.97c0,.4-.33,.73-.73,.73h-2.91c-.41,0-.73-.33-.73-.73v-23.96l-.36-.36H56.64l-.35,.36v23.96c0,.4-.33,.73-.73,.73h-2.91c-.41,0-.74-.33-.74-.73v-27.97c0-.39,.33-.73,.74-.73h3.6l.34-.22-.08-.39-1.88-1.9-2.42-2.38-.29-.65v-18.01c0-.4,.33-.72,.74-.72h2.91c.4,0,.73,.32,.73,.72v3.2l.35,.35h9.42c.4,0,.73,.33,.73,.73v2.91c0,.41-.33,.73-.73,.73h-9.42l-.35,.37v3.05l.35,.37h9.42c.4,0,.73,.32,.73,.72v2.91c0,.4-.33,.73-.73,.73h-9.34l-.34,.22,.09,.4c.65,.66,6.44,6.45,6.83,6.76l.23,.09,27.44-.05,.25-.12,6.65-6.68,.07-.4-.34-.22h-9.29c-.4,0-.72-.33-.72-.73v-2.91c0-.4,.32-.72,.72-.72h9.42l.36-.37v-3.05l-.36-.37h-9.42c-.4,0-.72-.32-.72-.73v-2.91c0-.4,.32-.73,.72-.73h9.42l.36-.35v-3.2c0-.4,.32-.72,.73-.72h2.91c.4,0,.73,.32,.73,.72l.02,17.89c-.13,.32-.22,.53-.28,.69l-4.33,4.36Zm4.3-4.23l-.02,.13-.02-.04,.04-.09Zm13.98,24.15c-2.9,5.57-4.07,9.03-5.03,9.94-1.12,.57-5.56,.16-5.59,.13l-.17-.48,.22-.52c.39-.39,3.6-5.55,6.01-9.86l.02-.28c-.02-.09-.25-.39-.58-.62-4.25-3.01-6.33-7.94-6.41-17.05l.27-.64,.52-.22,2.52-.03c.4,0,.72,.34,.73,.72,.07,7.54,1.58,11.85,4.57,13.54l.47-.05c.24-.18,.35-.44,.49-.85,.83-2.38,1.71-8.49,2.11-14.58h0s-.28-.38-.28-.38c-6.24-1.53-10.81-11.05-10.95-21.55-.01-.67,.22-.88,.76-.88h2.9c.4,0,.72,.33,.73,.72,.08,7.99,2.76,15.2,6.53,17.03h.35s.17-.32,.17-.32l.03-1.34c0-6.13-.93-12.24-1.87-15.04l-.06-.41,.48-.7s2.22-.01,2.99-.01c.65,0,.95,.63,1.15,1.24,.92,2.59,1.64,9.57,1.64,14.88v.97s.17,.32,.17,.32l.37-.02c.71-.41,1.34-.8,1.91-1.39,2.79-2.88,4.7-9.04,4.71-14.64v-.37c0-.39,.32-.72,.71-.73,0,0,2.39,0,2.71,0,.31,0,.51,.08,.75,.36,.28,.32,.23,.98,.23,.98,0,6.75-2.39,13.75-5.97,17.45-1.63,1.67-3.48,2.79-5.53,3.38l-.27,.32c-.35,5.83-1.18,11-2.29,15.24l.12,.36,.38,.04c.92-.41,1.63-.92,2.23-1.52,2.5-2.58,3.93-6.53,3.93-11.5l-.05-.53,.03,.03v-.02c0-.39,.31-.69,.71-.72h2.75s.67,.26,.67,.26l.21,.51v.55c.01,6.13-1.84,11.45-5.12,14.82-2.18,2.24-4.86,3.13-7.76,3.22l-.31,.2Zm41.65,9.39c0,.4-.32,.73-.73,.73h-2.9c-.41,0-.73-.33-.73-.73v-1.59l-.36-.37h-15.46c-.41,0-.73-.33-.73-.73v-20.37c0-.4,.32-.72,.73-.72h2.92c.4,0,.72,.33,.72,.72v16.37l.37,.37h2.14l.36-.37v-21.73l-.36-.36h-6.64l-.37,.34c-.38,4.4-.97,8.34-1.8,12.09-1.62,7.35-4.2,12.24-7.05,16.84,0,0-.59,.37-1.03,.37s-4.4,.06-4.74-.09c-.36-.15-.53-.66-.53-.82l.25-.55c2.18-1.89,7.12-8.93,8.82-16.7,1.98-9.02,2.2-17.3,2.2-22.75,0-7.89,4.32-13.19,10.75-13.19h12.91c.4,0,.74,.33,.74,.73v2.92c0,.4-.34,.72-.74,.72h-12.54c-2.91,0-5,1.94-5.92,5.46l.07,.31,.29,.15h18.1c.4,0,.74,.32,.74,.72v2.92c0,.4-.34,.74-.74,.74h-18.96l-.37,.34-.09,4.71,.1,.26,.25,.11h19.06c.4,0,.74,.33,.74,.73v2.91c0,.4-.34,.72-.74,.72h-7.69l-.36,.36v4.56l.22,.35c3.72,1.33,9.09,7.22,9.09,13.44v10.08Zm-4.37-10.08v3.39l-.36,.37h-4.22l-.36-.37v-11.19l.2-.34,.39,.05c2,1.67,4.35,4.79,4.35,8.1Zm-51.29-23.33l-.02-.04,.04-.09-.02,.13Zm-21.09,15.6l-3.2,3.18-.69,.14-.68-.14-3.18-3.18-.11-.87,.42-.27h7.11l.42,.27-.1,.87Zm-5.43-81.58c-4.47-1.73-8.91-1.83-8.91-1.83-.76-.2-.83-1.09-.54-1.5,1.41-1.93,5.07-4.01,6.51-4.2,.07,.31,0,.69-.1,1.03-.12,.38-.22,.76-.22,1.06,.1,.42,.1,.76,.43,.57,1.35-1.25,4.39-1.74,5.69-1.88,.52,1.6-2.65,4.98,.78,3.24,1.3-.65,2.53-1.49,4.16-1.29-.14,.97-1.17,2.02-.26,2.99,2.46-.34,4.53-2.27,7.26-1.17-.91,.96-1.88,2-1.68,3.49,.77,.85,1.68-.44,2.58-.39,1.04-.05,2.09-.5,3.12-.11-.77,.84-1.5,1.68-1.56,2.85,1.36,1.16,3.5,1.22,4.79,2.46-.07,1.22-1.88,1.53-2.66,2.18-2.09,.51-3.23,.98-5.54,1.56-3.96-4.21-9.03-6.79-13.83-9.05m-13.15-6.25l-.63,.39c-.88,1.78-1,3.15-1,4.34v.73s-.1,2-.1,2c-.37,.62-.86,.72-1.92,.79l-1.76,.25-.23,.1-.62,.34c-.36,.16-.77-.04-1.49,.64l-.22,.52,.08,.34c.13,.28,.46,.44,.78,.39,2.83-.51,5.69-.15,7.56,.27,.36,.06,.66-.12,.8-.44l-.09,.2,.7-.69c.42-.36,.62-.22,.97-1.07,.21-.5,.09-.99-.28-1.39-1.22-1.31-1.41-4.87-1.43-5.28-.02-.66-.07-1.41-.47-2.07l-.65-.35Zm3.97,15.74c-.26-.24-1.03-2.08-.75-2.69,.57-1.27,1.57-1.68,.68-3.24-.5-.88,1.05-2.69,1.36-2.39,.12,.11-.15,1.71,.49,2.23,1.27,1.02,3.91,1.2,4.57,.99,.28,.93-.78,1.19-1.33,1.41-2.17,.13-1.77-.26-2.05-.04-.27,.23,.23,.97,1.29,1.37,1.13,.32,3.15,1.38,3.98-.57,.44-.82-.65-3.41,.19-3.48,.84-.07,2.13,3.32,1.92,5.32-.23,2.11-3.5,3.42-5.26,3.08-1.76-.35-4.29-1.23-5.11-2Zm3.04-8.92c1-.34,2.26,.25,2.47,.74,0,.4,.04,1.41-.45,1.71-.63,.31-1.93-.28-2.23-.88-.2-.6-.08-1.27,.21-1.56m-15.69,19.28c-2.16-1.07-4.05-3.03-4.05-5.53-.06-2.02,1.01-3.78,2.69-4.72,1.85-.76,2.86-1.77,5.42-2.03,1.55-.64,2.28-.78,3.75-.85,1.06,.93,3.55,2.57,2.91,3.39-1.12,1.45-4.01,3.94-4.81,6.75-1.5,2.02-3.43,3.82-5.92,2.99m43.01-2.33c.07,7.72,0,21.56,0,21.56-7.62,.05-10.78-1.39-15.42-5.48l12.32-15.96s1.88-.38,3.1-.11Z"/>
  <path class="cls-1" d="M21.49,103.32c0,45.13,36.71,81.86,81.84,81.86s81.85-36.73,81.85-81.86S148.46,21.47,103.33,21.47,21.49,58.18,21.49,103.32m1.47,0c0-44.32,36.06-80.37,80.38-80.37s80.37,36.05,80.37,80.37-36.06,80.37-80.37,80.37S22.96,147.64,22.96,103.32Z"/>
  <path class="cls-1" d="M2.6,103.32c0,55.55,45.19,100.73,100.73,100.73s100.72-45.19,100.72-100.73S158.88,2.59,103.33,2.59C47.79,2.6,2.6,47.79,2.6,103.32m1.4,0C4.01,48.56,48.56,3.99,103.33,3.99s99.32,44.57,99.32,99.33-44.55,99.34-99.32,99.34S4.01,158.11,4.01,103.32Z"/>
  <path class="cls-1" d="M0,103.32c0,56.98,46.35,103.32,103.33,103.32s103.33-46.35,103.33-103.32S160.31,0,103.33,0,0,46.36,0,103.32m1.4,0C1.4,47.13,47.13,1.4,103.33,1.4s101.92,45.72,101.92,101.92-45.72,101.93-101.92,101.93S1.4,159.53,1.4,103.32Z"/>
  <path class="cls-1" d="M42.36,170.75c-.94,.99-2.47,1-3.44,.08-.99-.95-1.03-2.47-.09-3.46,.95-.99,2.5-1,3.47-.08,.95,.92,1.01,2.46,.06,3.45"/>
  <path class="cls-1" d="M48.17,178.42c-.83,1.13-1.43,1.96-1.75,2.5-.22,.37-.32,.65-.05,.92l.48,.42,.08,.26-.32-.04c-.65-.49-1.36-1.06-1.63-1.27-.27-.2-.97-.63-1.36-.92l-.12-.29h.24s.4,.22,.4,.22c.25,.11,.47-.08,.75-.4,.42-.47,1.07-1.35,1.9-2.47l1.51-2.08c1.32-1.79,1.55-2.13,1.82-2.5,.28-.42,.28-.63,.02-.98l-.39-.34-.08-.25,.33,.07c.54,.39,1.17,.9,1.47,1.12,.39,.28,2.68,1.99,2.95,2.15l.47,.26,.22,.06-.02,.16-.47,.46-.75,.92-.28,.17v-.3s.28-.48,.28-.48c.05-.22-.02-.55-.39-.85l-1.7-1.31-.21,.1-2.09,2.85v.17s1.45,1.05,1.45,1.05l.49,.33,.58,.12,.23-.03v.15c-.07,.07-.35,.36-.66,.72l-.67,.82-.31,.18,.03-.24,.2-.4-.17-.79-1.65-1.27-.14,.05-.72,.98"/>
  <path class="cls-1" d="M53.67,180.76c1.23-2.17,4.12-4.25,7.51-2.33,2.83,1.59,3.55,4.43,1.9,7.36-1.65,2.91-4.74,4.17-7.63,2.54-3.26-1.82-3.06-5.3-1.78-7.57m7.48,4.55c1.59-2.83,1.12-5.36-.69-6.39-1.24-.71-3.15-.75-4.92,2.38-1.48,2.63-1.37,5.41,.74,6.6,.78,.46,2.82,1.03,4.86-2.59Z"/>
  <path class="cls-1" d="M66.17,186.02c.82-2.06,.99-2.43,1.14-2.88,.17-.49,.11-.67-.22-.94l-.44-.25-.15-.22h.32c.64,.24,1.42,.6,1.78,.74,.3,.11,1.1,.4,1.55,.56l.21,.24-.25,.07-.37-.09c-.33-.05-.51,.09-.73,.56-.19,.42-.35,.8-1.17,2.87l-.76,1.9c-.79,1.98-.76,2.88-.39,3.66,.33,.7,.88,.98,1.29,1.15,.51,.2,1.2,.27,1.88-.09,.97-.47,1.47-1.65,2.02-3.04l.68-1.7c.82-2.06,.95-2.45,1.12-2.89,.15-.48,.11-.65-.21-.94l-.43-.22-.14-.23,.3-.03c.62,.23,1.41,.6,1.42,.61,.13,.05,.94,.33,1.41,.51l.19,.22-.25,.07-.39-.09c-.34-.07-.5,.09-.71,.57-.2,.42-.37,.8-1.18,2.86l-.58,1.45c-.6,1.52-1.38,3.06-2.76,3.64-1.17,.5-2.14,.27-2.91-.03-.62-.25-1.84-.76-2.35-2.01-.37-.86-.44-2.07,.35-4.04l.78-1.99"/>
  <path class="cls-1" d="M77.21,195.15c-.25,1.11-.17,1.49,.05,1.65l.63,.26,.17,.2-.32,.09c-.81-.21-1.37-.39-1.61-.46-.11-.02-.72-.11-1.35-.27l-.25-.22,.24-.11,.56,.07c.36-.01,.5-.39,.82-1.62l2.19-8.39,.33-.43,.44,.6c.1,.22,1.42,2.94,2.72,5.49,.61,1.19,1.77,3.6,1.91,3.85h.06s1.43-6.33,1.43-6.33c.2-.88,.15-1.15-.13-1.36l-.62-.25-.17-.19,.35-.07c.65,.16,1.31,.36,1.58,.44,.14,.03,.62,.11,1.22,.28l.25,.2-.25,.09-.39-.03c-.36,.03-.53,.25-.74,1.05l-2.34,8.91c-.1,.33-.22,.43-.31,.42l-.45-.44c-.56-1.04-1.69-3.19-2.63-4.98-.98-1.88-1.88-3.92-2.05-4.23h-.05s-1.29,5.82-1.29,5.82"/>
  <path class="cls-1" d="M90.11,193.02c.22-2.21,.27-2.62,.29-3.08,.03-.5-.08-.65-.47-.84l-.5-.11-.2-.17,.31-.09c.66,.07,1.48,.18,1.84,.21,.39,.05,1.32,.11,2.08,.17,1.6,.18,3.76,.39,4.98,2.18,.57,.82,1.02,2.1,.83,3.82-.2,1.83-1,3.15-1.8,3.91-.66,.62-2.12,1.52-4.46,1.28-.47-.04-1.03-.16-1.53-.24-.5-.11-.96-.19-1.29-.23l-.72-.06-.9-.05-.24-.19,.23-.13h.46c.27-.04,.37-.3,.45-.73,.12-.61,.24-1.76,.39-3.09l.25-2.57m1.55,1.78c-.16,1.53-.25,2.64-.27,2.94,0,.36-.04,.88,.05,1.05,.13,.29,.6,.65,1.61,.74,1.16,.12,2.04-.02,2.89-.7,.92-.72,1.3-1.99,1.47-3.5,.19-1.84-.32-3.1-.84-3.75-1.04-1.35-2.42-1.64-3.43-1.75l-.79,.02-.19,.28c-.06,.49-.18,1.69-.29,2.83l-.2,1.83Z"/>
  <path class="cls-1" d="M102.77,193.93c-.04-2.22-.04-2.63-.07-3.09-.03-.48-.15-.64-.57-.79l-.52-.03-.22-.15,.29-.14c.68-.01,1.5,0,1.87,0,.4,0,3.26-.05,3.49-.08l.55-.1,.21-.07,.09,.14c0,.1-.07,.27-.08,.94l-.06,.96-.14,.24-.11-.19-.09-.54c-.11-.25-.22-.45-.86-.51l-2.03-.02-.08,.13,.07,3.62,.1,.15,2.26-.08,.61-.24,.2-.2,.11,.16c0,.09-.02,.34-.08,1.07l-.04,.97-.12,.33-.12-.12-.05-.51c-.08-.29-.25-.53-.73-.57-.24-.02-1.69-.02-2.01-.01l-.08,.15,.03,1.18c0,.49,.01,1.73,.04,2.16,.04,1,.45,1.21,1.76,1.18,.33,0,.88-.03,1.21-.21,.31-.18,.46-.49,.53-1.1l.14-.22,.12,.35c0,.32-.07,1.32-.13,1.62-.08,.37-.2,.38-.68,.39-.96,.03-1.74,.03-2.37,0-.63,0-1.12,0-1.5,0-.15,0-.41,.03-.74,.04l-.88,.05-.25-.15,.2-.16,.46-.07c.26-.07,.33-.34,.36-.77,.05-.63,.03-1.77,0-3.1l-.07-2.59"/>
  <path class="cls-1" d="M111.71,193.6c-.29-2.19-.36-2.61-.44-3.07-.1-.48-.23-.63-.65-.7l-.51,.02-.24-.13,.27-.18c.66-.08,1.48-.16,1.85-.21,.39-.06,1.3-.21,2.06-.31,1.59-.22,3.74-.5,5.36,.96,.73,.66,1.46,1.8,1.69,3.52,.25,1.82-.23,3.3-.84,4.23-.5,.75-1.7,1.96-4.05,2.28-.47,.06-1.02,.09-1.53,.12-.51,.02-.98,.04-1.3,.09-.15,.02-.41,.08-.72,.11l-.88,.16-.27-.12,.19-.18,.44-.11c.25-.11,.29-.38,.28-.82-.03-.62-.18-1.76-.36-3.09l-.34-2.56m1.92,1.37c.22,1.55,.38,2.64,.42,2.93,.07,.36,.16,.86,.29,1,.19,.26,.75,.49,1.75,.36,1.15-.15,1.98-.52,2.65-1.36,.72-.92,.8-2.24,.59-3.74-.25-1.85-1.04-2.96-1.67-3.46-1.34-1.07-2.75-1.04-3.76-.9l-.77,.22-.11,.31c.05,.49,.21,1.68,.36,2.83l.25,1.82Z"/>
  <path class="cls-1" d="M130.03,188.73c-.28-.88-.5-1.59-.69-2.14-.12-.4-.18-.59-.39-.52l-1.36,1.3-.17,.13-.18-.15,.07-.28c.05-.04,2.07-2.96,2.41-3.55l.29-.32,.28,.29c.04,.13,.47,1.78,1.29,4.29l.97,3.01c.5,1.57,.94,2.96,1.24,3.67,.2,.5,.36,.74,.83,.7l.97-.2,.17,.13-.17,.23c-1.07,.34-1.98,.58-2.35,.69-.32,.1-1.47,.53-2.37,.81l-.28-.08,.06-.2,1.09-.46c.4-.27,.39-.51,.28-1.05-.2-.73-.6-2.14-1.12-3.7l-.85-2.6"/>
  <path class="cls-1" d="M142.3,183.28c1.92,4.41-.14,8.62-1.4,10.26l-.22,.16-.18-.1,.04-.33c.95-1.6,1.9-5.1,.29-8.82-1.23-2.78-2.77-3.57-3.8-3.12-.97,.41-1.16,1.7-.57,3.05,1.05,2.4,2.63,2.4,3.08,2.2,.48-.22,.7-.42,.82-.6l.19-.3,.17,.11,.02,.2c-.19,.66-.78,1.2-1.45,1.51-1.93,.84-3.48-.52-4.07-1.86-.92-2.12-.23-4.27,1.82-5.16,2.19-.96,4.19,.41,5.26,2.81"/>
  <path class="cls-1" d="M148.34,189.6l-.47-.28c-.39-.71-.83-1.57-.96-1.93l-.02-.36,.24,.15c.54,.95,1.74,1.64,3.03,.91,1.24-.72,1.85-2.09,.85-3.87-1.12-2-3.07-1.85-3.76-1.62-.37,.1-.49,.09-.55-.02l.11-.34c.5-.47,1.5-1.95,.51-3.68-.35-.64-1.43-1.63-2.72-.9-1,.58-1.38,1.71-.87,2.6v.29s-.21-.17-.21-.17c-.32-.44-.74-1.09-.94-1.44l.03-.38c.3-.48,.89-1.23,1.95-1.82,2.43-1.39,3.72-.13,4.13,.58,.84,1.47,.07,3.25-.33,3.74l.02,.05c1.08-.28,2.91-.15,3.93,1.65,1.18,2.11,.63,4.72-1.85,6.13-.9,.52-1.71,.76-2.11,.72"/>
  <path class="cls-1" d="M156.73,184.84l-.32-.08-.02-.53c.44-2.92,1.27-6.79-.84-9.75-1.57-2.21-2.94-1.93-3.53-1.5-.5,.36-.83,.75-.91,1.4-.06,.53,.2,1.34,.46,1.71l.03,.37-.29-.19c-.1-.12-.99-1.25-1.29-1.66l-.05-.37c.27-.62,.74-1.33,1.79-2.07,2.11-1.49,3.94-.78,5.1,.85,1.95,2.73,1.06,6.93,.56,9.46l.09,.08,.82-.58c.2-.14,1.59-1.15,1.98-1.53,.75-.69,.81-1.46,.48-2.22l-.02-.33,.29,.2c.15,.22,.86,1.69,1.09,2.25,.17,.44,0,.62-.74,1.16l-4.67,3.33"/>
  <path class="cls-1" d="M168.17,167.12c.95,.98,.89,2.52-.07,3.45-.98,.94-2.52,.92-3.46-.05-.96-1-.92-2.54,.07-3.48,.96-.92,2.5-.9,3.46,.08"/>
  <path class="cls-1" d="M31.37,152.5l.15,.05,2.04-.51c.36-.09,.7-.24,.85-.33,.21-.14,.27-.33,.05-.66l-.11-.15,.03-.25,.25,.09c.24,.36,.52,.88,.74,1.23,.08,.11,.5,.65,.86,1.21v.28l-.2-.04-.23-.3c-.4-.44-.91-.38-1.66-.2l-9.47,2.18c-.43,.12-.62,.12-.69,0l.17-.57c.51-.7,4.27-5.74,5.69-7.63,.82-1.15,.78-1.56,.71-1.77l-.23-.44,.03-.22c.1-.08,.16-.04,.43,.38,.25,.37,.77,1.15,1.33,2.07l.11,.39-.23-.04-.34,.07-1.93,2.45v.18s1.65,2.52,1.65,2.52m-2.18-1.85h-.1l-2.39,3.02-.09,.12h.16s3.72-.97,3.72-.97l.06-.1-1.37-2.07Z"/>
  <path class="cls-1" d="M22.48,136l.15,.08,2.09-.06c.39,0,.75-.08,.9-.14,.24-.09,.36-.24,.2-.61l-.08-.19,.08-.22,.23,.13c.15,.4,.32,.98,.46,1.36,.05,.11,.35,.74,.59,1.37l-.07,.27-.2-.08-.15-.34c-.3-.52-.8-.56-1.59-.55l-9.73,.12c-.42,0-.63-.04-.68-.15l.3-.52c.65-.58,5.4-4.68,7.18-6.23,1.06-.93,1.11-1.33,1.08-1.57l-.13-.48,.08-.21c.12-.05,.17,.01,.34,.46,.15,.42,.49,1.3,.85,2.31l.02,.4-.2-.1h-.35l-2.41,1.98-.04,.16,1.07,2.82m-1.73-2.26l-.11-.03-2.99,2.43-.1,.11h.15s3.85-.11,3.85-.11l.07-.08-.88-2.32Z"/>
  <path class="cls-1" d="M20.9,126.24c1.09-.29,1.39-.52,1.43-.79l-.05-.68,.1-.25,.21,.25c.2,.81,.28,1.4,.34,1.63,.03,.12,.22,.7,.38,1.34l-.1,.32-.2-.15-.2-.56c-.17-.3-.58-.25-1.81,.03l-8.45,1.91-.54-.11,.34-.66c.16-.2,1.96-2.61,3.61-4.94,.78-1.08,2.4-3.23,2.54-3.45v-.07s-6.3,1.65-6.3,1.65c-.86,.22-1.08,.39-1.15,.72l.07,.68-.11,.23-.2-.29c-.16-.65-.28-1.33-.36-1.59-.04-.15-.17-.61-.32-1.21l.07-.32,.2,.17,.13,.37c.21,.32,.47,.35,1.29,.17l8.99-2c.32-.08,.47-.02,.49,.09l-.17,.59c-.67,.98-2.05,2.96-3.22,4.63-1.2,1.74-2.62,3.46-2.81,3.77v.05s5.78-1.54,5.78-1.54"/>
  <path class="cls-1" d="M19.8,110.38c-.11,.27-.21,.33-.63,.34-1.04,.06-2.18,.05-2.49,.05l-.5-.16,.31-.17c.25-.03,.64-.11,.97-.2,1.38-.44,1.84-1.42,1.78-2.42-.07-1.46-1.26-2.11-2.27-2.05-.94,.05-1.79,.34-2.96,1.73l-.64,.79c-1.53,1.87-2.83,2.56-4.37,2.64-2.08,.1-3.67-1.3-3.79-3.55-.05-1.04,.09-1.75,.2-2.16l.22-.24c.25-.01,.81,.03,2.27-.05,.43-.03,.58,.02,.59,.15l-.34,.16c-.16,.03-.75,.13-1.23,.5-.35,.24-.9,.75-.84,1.8,.07,1.2,.92,1.88,2.06,1.81,.87-.04,1.53-.44,2.65-1.86l.37-.47c1.63-2.05,2.89-2.8,4.69-2.9,1.11-.05,2.43,.23,3.39,1.34,.65,.77,.87,1.67,.91,2.53,.06,.93-.04,1.67-.36,2.38"/>
  <path class="cls-1" d="M14.07,101.64c-2.48-.2-5.59-1.93-5.29-5.82,.25-3.23,2.51-5.08,5.85-4.81,3.34,.24,5.81,2.51,5.55,5.81-.29,3.74-3.51,5.02-6.11,4.82m.94-8.69c-3.21-.24-5.33,1.25-5.48,3.32-.11,1.42,.64,3.16,4.24,3.44,3,.22,5.47-1.05,5.67-3.48,.07-.89-.28-2.98-4.43-3.29Z"/>
  <path class="cls-1" d="M19.64,88.19c-1.5,.98-3.19,.96-4.55,.67-.98-.22-2.61-.85-3.61-2.32-.74-1.12-1.06-2.45-.66-4.31,.17-.79,.34-1.25,.54-1.8,.2-.46,.38-.85,.51-1.21l.21-.15c.12,.02,.29,.09,.78,.22,.46,.14,1.26,.3,1.54,.38l.32,.25-.33,.07c-.46-.09-1-.03-1.44,.19-.58,.33-1.11,1.09-1.36,2.25-.24,1.11-.15,1.86,.29,2.55,.75,1.14,2.08,1.66,3.48,1.95,3.4,.74,5.49-1.15,5.85-2.83,.24-1.11,.27-1.75-.27-2.4l-.87-.62-.25-.23,.27-.09c.18,.03,1.39,.45,1.85,.68l.35,.43c.11,.55,0,1.52-.17,2.34-.37,1.71-1.11,3.09-2.48,3.98"/>
  <path class="cls-1" d="M16.95,76.53c-2.11-.68-2.51-.81-2.95-.94-.49-.12-.69-.04-.87,.19l-.21,.41-.22,.14-.02-.33c.14-.45,.44-1.28,.56-1.62,.09-.32,.32-1.12,.46-1.58l.21-.23,.1,.26-.08,.37c-.03,.36,.13,.51,.61,.71,.44,.16,.82,.29,2.94,.96l2.45,.79c1.34,.43,2.47,.78,3.07,.92,.39,.08,.62,.05,.8-.27l.25-.61,.21-.16,.07,.29c-.26,.8-.58,1.62-.68,1.95-.09,.27-.3,1.12-.46,1.62l-.23,.19-.08-.23,.08-.45c.03-.27-.15-.4-.56-.58-.53-.23-1.66-.6-2.99-1.03l-2.46-.78"/>
  <path class="cls-1" d="M19.11,70.3c-2.05-.84-2.42-1.01-2.86-1.18-.47-.17-.66-.13-.95,.21l-.24,.44-.23,.15-.02-.34c.26-.61,.61-1.34,.75-1.69,.16-.37,1.27-2.99,1.36-3.23l.12-.53v-.22s.17-.03,.17-.03c.1,.05,.23,.17,.83,.46l.86,.45,.17,.21-.22,.03-.52-.13c-.27,0-.51,.01-.82,.56l-.84,1.83,.09,.15,3.34,1.4,.17-.02,.84-2.09,.04-.66-.11-.25,.18-.05c.09,.04,.29,.17,.94,.5l.88,.44,.25,.26-.16,.06-.51-.17c-.29-.04-.57,.03-.8,.44l-.84,1.84,.11,.13,1.08,.44c.46,.2,1.59,.7,2,.85,.93,.36,1.29,.08,1.8-1.13,.13-.31,.33-.82,.29-1.19-.04-.36-.26-.62-.79-.94l-.15-.21,.38,.02,1.41,.79c.31,.22,.27,.34,.09,.79-.37,.88-.7,1.6-.96,2.16-.26,.58-.47,1.01-.61,1.36l-.27,.68-.32,.84-.24,.17-.06-.24,.13-.44c.04-.27-.19-.44-.56-.65-.55-.29-1.61-.74-2.85-1.26l-2.38-1"/>
  <path class="cls-1" d="M20.79,58.83l-.88,1.7c-.34,.66-.41,.98-.21,1.31l.33,.43,.1,.21-.27-.02-1.42-1.08-.16-.26,.41-.4c.23-.31,.47-.73,.68-1.09l2.52-4.57c.2-.37,.3-.62,.37-.8l.1-.35,.32,.06c.27,.16,1.21,.69,1.54,.88l.16,.21h-.33s-.14-.07-.14-.07c-.35-.15-.9-.08-1.48,.93l-.81,1.4,5.18,2.85c1.17,.66,2.18,1.19,2.78,1.45,.37,.16,.65,.23,.9-.07l.36-.56,.23-.1v.29c-.39,.74-.86,1.47-1.04,1.8-.13,.24-.51,1.04-.75,1.48l-.26,.15-.04-.24,.18-.43c.07-.26-.14-.46-.49-.71-.51-.34-1.51-.89-2.7-1.55l-5.18-2.85"/>
  <path class="cls-1" d="M31.22,53.93c-.65-.45-.97-.53-1.43-.63-.23-.06-3.87-.46-4.77-.53-.62-.05-1.04-.02-1.32,.09l-.46,.33-.23,.08,.02-.28c.13-.18,.71-.95,.96-1.31,.15-.22,.47-.72,.8-1.21l.22-.07v.33s.07,.27,.07,.27l.5,.15c.5,.07,4.27,.64,4.73,.7-.19-.33-1.86-3.39-2.11-3.81l-.53-.6-.42,.05-.27,.08v-.24c.25-.34,.54-.7,.76-1.02l.76-1.14,.24-.13v.31l-.17,.55c-.04,.33,0,.48,.17,.95,.23,.68,2.03,4.17,2.39,4.72,.34,.47,.72,.7,1.12,.97l.96,.68c.2,.13,.69,.48,1.22,.81,.36,.22,.66,.27,.94,0l.4-.49,.25-.1-.02,.32c-.47,.66-1,1.35-1.21,1.62-.18,.26-.63,.99-.91,1.39l-.29,.14v-.27s.21-.39,.21-.39c.09-.26-.09-.48-.41-.76-.48-.38-.97-.74-1.17-.86l-.98-.7"/>
  <path class="cls-1" d="M39.85,42.65c1.01,.98,1.77,1.7,2.26,2.07,.33,.28,.58,.4,.91,.18l.47-.43,.27-.04-.08,.31c-.57,.58-1.24,1.21-1.47,1.44-.23,.24-.76,.86-1.1,1.21l-.28,.08v-.24s.28-.36,.28-.36c.14-.24,0-.49-.28-.8-.42-.48-1.19-1.22-2.2-2.2l-1.86-1.79c-1.6-1.55-1.89-1.82-2.24-2.14-.38-.32-.6-.36-.96-.15l-.4,.32-.27,.06,.12-.32c.46-.47,1.05-1.04,1.3-1.31,.34-.36,2.32-2.39,2.53-2.63l.33-.43,.08-.21,.15,.04,.4,.53,.82,.85,.11,.31-.28-.06-.45-.32c-.22-.08-.55-.06-.9,.28l-1.51,1.5,.07,.23,2.55,2.46,.16,.03,1.23-1.31,.39-.43,.19-.56v-.23s.17,.03,.17,.03c.06,.05,.29,.37,.61,.72l.72,.78,.13,.33-.22-.07-.39-.24-.8,.08-1.48,1.45,.04,.15,.86,.82"/>
  <path class="cls-1" d="M42.94,37.52c-1.57-1.93-2.45-5.38,.57-7.84,2.52-2.04,5.42-1.68,7.53,.93,2.12,2.59,2.17,5.94-.41,8.04-2.9,2.35-6.06,.88-7.69-1.13m6.96-5.29c-2.04-2.51-4.58-3.01-6.19-1.71-1.11,.9-1.85,2.65,.44,5.47,1.89,2.32,4.52,3.23,6.4,1.71,.7-.56,1.97-2.24-.64-5.47Z"/>
  <path class="cls-1" d="M53.46,27.81c-1.15-1.88-1.36-2.23-1.62-2.62-.28-.41-.46-.48-.88-.39l-.46,.23-.27-.02,.17-.27c.58-.34,1.3-.74,1.51-.88,.39-.23,1.36-.87,1.7-1.09,.69-.41,1.54-.84,2.41-.74,.45,.05,1.31,.4,1.82,1.24,.56,.92,.62,2.02,.17,3.69,1.83,.81,3.3,1.45,4.44,1.84,1.05,.34,1.46,.16,1.67,.1l.27-.13,.22,.05-.13,.26-1.05,.65c-.61,.37-.96,.47-1.35,.47-.63,.01-1.41-.32-2.61-.91-.85-.41-1.81-.96-2.07-1.07l-.26,.03-.99,.58-.03,.15,.11,.17c.71,1.16,1.31,2.12,1.69,2.62,.26,.33,.45,.53,.84,.39l.57-.27,.21,.03-.14,.27c-.64,.41-1.58,.91-1.74,1.01-.21,.13-.88,.6-1.33,.86h-.29l.09-.24,.37-.28c.2-.2,.1-.46-.08-.85-.27-.56-.88-1.55-1.57-2.7l-1.36-2.19m1.99,.12l.24,.15,.91-.4c.44-.26,.56-.38,.64-.67,.17-.48,.21-1.26-.41-2.29-1.08-1.75-2.38-1.57-3.02-1.18l-.63,.44v.23s2.27,3.71,2.27,3.71Z"/>
  <path class="cls-1" d="M67.74,16.6l-1.76,.76c-.7,.29-.95,.5-1,.87l-.02,.53-.08,.24-.18-.18-.4-1.75,.02-.31c.1-.05,.27,.02,.58-.05,.38-.08,.84-.25,1.23-.4l4.85-1.93c.37-.15,.61-.29,.78-.38l.31-.2,.2,.26c.11,.28,.5,1.29,.63,1.65v.27s-.27-.22-.27-.22l-.07-.14c-.17-.33-.64-.62-1.73-.22l-1.52,.58,2.18,5.49c.5,1.25,.93,2.31,1.22,2.88,.19,.36,.36,.6,.73,.52l.64-.19,.24,.07-.17,.24c-.79,.31-1.6,.59-1.95,.72-.27,.1-1.06,.49-1.54,.67l-.29-.06,.13-.23,.4-.2c.22-.17,.19-.45,.07-.86-.17-.59-.59-1.66-1.1-2.92l-2.16-5.49"/>
  <path class="cls-1" d="M83.39,15.7l.04-.12-.08-.3c-.54-2.14-.69-2.66-.82-3.11-.15-.47-.31-.6-.74-.63l-.49,.07-.24-.08,.22-.22c.68-.16,1.57-.34,1.88-.44,.3-.07,1.1-.31,1.59-.44l.3,.07-.19,.21-.35,.15c-.32,.15-.36,.37-.27,.88,.08,.46,.2,.85,.74,3.01l.63,2.51c.33,1.3,.61,2.4,.82,3.01,.15,.38,.29,.63,.69,.61l.64-.11,.24,.1-.22,.22c-.8,.2-1.64,.35-1.98,.44-.29,.07-1.15,.35-1.64,.46l-.3-.08,.16-.2,.44-.17c.24-.12,.24-.41,.17-.84-.09-.6-.37-1.69-.7-2.99l-.27-1.09-.1-.07-4.71,1.19-.06,.11,.28,1.08c.32,1.3,.62,2.38,.83,2.98,.15,.39,.29,.64,.66,.62l.67-.11,.22,.09-.21,.22c-.81,.2-1.69,.38-2.04,.46-.29,.07-1.09,.32-1.59,.45l-.28-.08,.16-.2,.43-.17c.23-.15,.24-.41,.18-.84-.1-.61-.38-1.73-.72-3.03l-.64-2.5c-.54-2.15-.64-2.54-.78-2.99-.15-.48-.29-.6-.73-.62l-.51,.08-.25-.11,.24-.19c.66-.17,1.48-.35,1.83-.42,.3-.08,1.15-.34,1.64-.46l.29,.07-.19,.21-.34,.13c-.32,.16-.38,.39-.28,.89,.09,.46,.23,.98,.77,3.13l.08,.3,.11,.08,4.69-1.19"/>
  <path class="cls-1" d="M89.97,13.94c-.29-2.2-.34-2.61-.4-3.08-.1-.49-.24-.62-.66-.71h-.51s-.23-.12-.23-.12l.27-.17c.67-.09,1.48-.15,1.85-.19,.41-.05,3.24-.38,3.47-.44l.52-.15,.2-.1,.1,.13c.01,.11-.03,.29,.02,.96l.04,.96-.11,.25-.13-.18-.16-.5c-.12-.25-.25-.44-.89-.43l-2.02,.18-.07,.15,.45,3.58,.1,.15,2.24-.32,.58-.29,.17-.22,.12,.15c.01,.08,.01,.32,.03,1.06l.07,.98-.09,.35-.13-.11-.11-.52c-.11-.28-.3-.48-.78-.47-.24-.01-1.69,.13-2.02,.17l-.05,.16,.15,1.17c.07,.5,.19,1.71,.27,2.15,.15,.98,.57,1.16,1.88,1,.33-.06,.86-.12,1.18-.34,.29-.21,.4-.54,.41-1.15l.12-.23,.15,.34c.04,.32,.07,1.32,.03,1.61-.04,.39-.16,.4-.63,.46-.96,.12-1.73,.2-2.36,.25-.61,.06-1.1,.09-1.48,.14l-.73,.1-.87,.15-.27-.12,.19-.18,.44-.11c.24-.11,.29-.38,.27-.82-.02-.61-.16-1.76-.33-3.08l-.31-2.56"/>
  <path class="cls-1" d="M115.48,13.79c.38-2.19,.44-2.6,.51-3.06,.05-.49-.03-.67-.41-.87l-.49-.15-.2-.17,.32-.1c.67,.12,1.46,.29,1.71,.34,.44,.07,1.6,.24,1.98,.31,.8,.13,1.71,.37,2.3,1.02,.31,.34,.72,1.17,.55,2.13-.17,1.08-.86,1.93-2.29,2.89,.84,1.83,1.51,3.27,2.11,4.3,.57,.95,.99,1.09,1.18,1.18l.3,.09,.13,.19-.27,.1-1.21-.21c-.7-.12-1.04-.26-1.34-.53-.48-.41-.84-1.16-1.35-2.42-.38-.86-.74-1.92-.86-2.16l-.21-.14-1.12-.23-.13,.1-.04,.2c-.23,1.35-.4,2.47-.44,3.08-.03,.43-.02,.71,.36,.86l.6,.15,.13,.18-.27,.1c-.74-.13-1.78-.36-1.97-.39-.24-.04-1.06-.13-1.56-.21l-.23-.2,.23-.12,.46,.03c.26-.03,.38-.29,.5-.71,.16-.6,.36-1.74,.58-3.06l.44-2.53m1.43,1.39l.06,.26c.26,.15,.63,.26,.94,.3,.51,.1,.69,.08,.93-.07,.45-.27,.98-.81,1.18-2,.37-2.04-.72-2.77-1.47-2.91-.32-.04-.64-.08-.77-.07l-.15,.19-.72,4.29Z"/>
  <path class="cls-1" d="M124.43,16.71c.74-2.39,3.13-5.02,6.85-3.86,3.1,.96,4.39,3.58,3.39,6.77-1,3.21-3.77,5.1-6.93,4.11-3.58-1.12-4.09-4.55-3.32-7.03m8.25,2.85c.98-3.07-.01-5.48-2-6.09-1.35-.43-3.23-.08-4.31,3.36-.9,2.88-.21,5.57,2.11,6.29,.85,.27,2.96,.4,4.19-3.57Z"/>
  <path class="cls-1" d="M140.71,16.61l.39-.22c.12,.05,.16,.15,.15,.59l-.44,8.76,6.68-5.84,.46-.18,.05,.55-2.89,8.58c-.3,.87-.36,1.29-.08,1.58l.59,.44,.13,.22h-.37c-.29-.13-1.92-.98-2.35-1.23l-.27-.33,.2-.08c.08,0,.19-.13,.33-.52l2.13-5.98h-.03s-5.33,4.57-5.33,4.57c-.57,.48-.7,.58-.82,.52-.15-.07-.15-.4-.13-.89,0-.73,.07-3.19,.13-3.63,.02-.29,.12-2.22,.18-3.32h-.03s-3.04,4.78-3.04,4.78l-.33,.6,.17,.56,.37,.28,.13,.2-.35,.03c-.49-.24-1-.55-1.2-.65-.23-.11-.81-.33-1.17-.5l-.13-.27,.25-.03,.37,.14c.34,.12,.7-.35,.96-.76l5.3-7.96"/>
  <path class="cls-1" d="M149.3,27.04c1.41-2.05,4.47-3.87,7.69-1.65,2.66,1.84,3.11,4.73,1.2,7.48-1.9,2.77-5.11,3.74-7.85,1.87-3.07-2.12-2.54-5.57-1.04-7.7m7.02,5.19c1.85-2.67,1.62-5.24-.09-6.42-1.19-.82-3.07-1.03-5.13,1.93-1.71,2.48-1.86,5.26,.14,6.63,.74,.52,2.71,1.26,5.08-2.15Z"/>
  <path class="cls-1" d="M165.06,33.12l-1.46-1.23c-.56-.49-.86-.62-1.21-.5l-.51,.22-.24,.05,.08-.27,1.39-1.12,.29-.11,.3,.5,.91,.91,3.87,3.48c.32,.29,.55,.44,.7,.55l.31,.17-.13,.3-1.2,1.29-.25,.11,.08-.32,.1-.13c.22-.3,.27-.85-.58-1.63l-1.18-1.12-3.96,4.4c-.9,1-1.66,1.87-2.04,2.38-.25,.34-.37,.6-.13,.89l.46,.48,.05,.25-.28-.04c-.63-.57-1.24-1.19-1.52-1.43-.22-.2-.9-.74-1.3-1.1l-.07-.27,.26,.02,.38,.26c.24,.13,.47-.03,.8-.32,.46-.42,1.22-1.28,2.13-2.28l3.95-4.41"/>
  <path class="cls-1" d="M168.77,41.37c1.63-1.51,1.94-1.79,2.27-2.11,.35-.36,.38-.58,.27-.85l-.27-.4v-.25s.28,.13,.28,.13c.34,.36,.88,1.03,1.14,1.29,.22,.24,.81,.82,1.15,1.19l.1,.27-.27-.03-.3-.24c-.29-.22-.5-.15-.91,.17-.36,.3-.66,.58-2.29,2.08l-1.9,1.75c-1.04,.97-1.89,1.75-2.31,2.21-.26,.31-.36,.52-.17,.85l.41,.52,.03,.25-.27-.08c-.58-.62-1.14-1.3-1.38-1.57-.2-.2-.83-.81-1.18-1.18l-.05-.29,.25,.03,.34,.31c.23,.15,.43,.05,.77-.21,.48-.36,1.33-1.16,2.38-2.11l1.89-1.75"/>
  <path class="cls-1" d="M171.38,45.99c2-1.49,5.49-2.21,7.82,.92,1.93,2.61,1.43,5.49-1.27,7.48-2.69,1.99-6.05,1.89-8.02-.77-2.24-3.01-.63-6.09,1.47-7.63m4.98,7.19c2.6-1.93,3.22-4.45,1.98-6.11-.85-1.16-2.57-1.97-5.48,.17-2.4,1.79-3.46,4.37-2,6.33,.53,.72,2.16,2.07,5.5-.4Z"/>
  <path class="cls-1" d="M176.81,59.99c-.98,.56-1.22,.86-1.19,1.13l.22,.64-.03,.26-.29-.19c-.37-.73-.61-1.27-.72-1.48-.06-.09-.4-.62-.7-1.21v-.32l.23,.11,.33,.49c.26,.24,.62,.09,1.75-.5l7.7-3.98,.55-.05c.08,.15-.04,.39-.17,.72-.1,.23-1.22,3.02-2.24,5.68-.48,1.26-1.5,3.74-1.59,4l.03,.05,5.67-3.19c.79-.43,.95-.65,.93-.98l-.24-.64,.05-.26,.27,.22c.32,.6,.61,1.21,.74,1.46,.08,.13,.34,.54,.62,1.09l.02,.32-.25-.13-.23-.32c-.26-.25-.54-.23-1.28,.15l-8.2,4.21-.51,.05,.03-.6c.39-1.14,1.23-3.39,1.95-5.3,.72-1.98,1.65-4.01,1.76-4.34l-.02-.05-5.19,2.95"/>
  <path class="cls-1" d="M186.67,72.41c2.38-.72,5.91-.21,7.02,3.51,.94,3.11-.51,5.64-3.72,6.61-3.2,.96-6.32-.26-7.27-3.44-1.07-3.58,1.5-5.94,3.98-6.68m2.24,8.44c3.1-.92,4.53-3.08,3.93-5.06-.41-1.38-1.74-2.71-5.2-1.69-2.88,.87-4.73,2.96-4.04,5.27,.26,.88,1.32,2.69,5.3,1.49Z"/>
  <path class="cls-1" d="M189.31,87.98c-1.4,.23-2.41,.43-3.01,.6-.41,.11-.68,.23-.68,.63l.07,.62-.12,.24-.21-.24c-.13-.81-.23-1.71-.3-2.04-.05-.33-.25-1.12-.32-1.59l.11-.3,.18,.16,.13,.45c.1,.24,.38,.27,.82,.23,.62-.04,1.7-.22,3.07-.47l2.55-.44c2.18-.37,2.58-.45,3.05-.54,.48-.12,.64-.27,.68-.68l-.04-.51,.12-.23,.2,.27c.11,.63,.21,1.46,.27,1.81,.09,.49,.56,3.3,.62,3.6l.15,.51,.11,.18-.11,.1c-.09,.03-.27,0-.65,.02l-1.19,.14-.31-.08,.22-.19,.53-.17c.19-.13,.36-.41,.29-.9l-.31-2.11-.21-.07-3.5,.61-.12,.11,.32,1.77,.11,.58,.35,.48,.18,.15-.11,.09c-.09,.02-.5,.03-.95,.07l-1.07,.14-.34-.09,.19-.15,.42-.16c.2-.1,.46-.31,.43-.7-.03-.31-.27-1.81-.3-2.03l-.14-.05-1.18,.2"/>
  <path class="cls-1" d="M186.65,99.48c.13-.25,.22-.3,.64-.31,1.04-.02,2.19,.05,2.48,.05l.51,.19-.33,.17c-.25,0-.64,.07-.98,.15-1.4,.37-1.91,1.33-1.88,2.33,0,1.45,1.16,2.16,2.18,2.16,.93-.01,1.79-.26,3.02-1.62l.68-.75c1.62-1.79,2.94-2.43,4.49-2.44,2.08-.01,3.6,1.45,3.62,3.71,.01,1.04-.17,1.73-.31,2.16l-.22,.22c-.24,0-.8-.06-2.28-.05-.42,.02-.58-.03-.58-.16l.34-.16c.16,0,.75-.1,1.25-.43,.35-.26,.92-.73,.92-1.78-.02-1.19-.84-1.91-1.98-1.9-.88,.01-1.54,.39-2.72,1.74l-.4,.46c-1.71,1.98-3.01,2.68-4.83,2.69-1.1,.01-2.41-.33-3.32-1.48-.6-.81-.8-1.71-.8-2.57,0-.93,.12-1.67,.47-2.37"/>
  <path class="cls-1" d="M187.66,109.59c1.38-1.14,3.05-1.3,4.46-1.14,.99,.12,2.66,.58,3.81,1.93,.86,1.04,1.31,2.32,1.11,4.22-.09,.8-.21,1.27-.36,1.84-.13,.46-.29,.87-.37,1.26l-.19,.16c-.12-.01-.29-.07-.8-.15-.48-.09-1.28-.17-1.57-.22l-.34-.21,.32-.1c.47,.05,1-.06,1.41-.34,.54-.38,.99-1.2,1.12-2.38,.13-1.11-.05-1.84-.56-2.49-.84-1.05-2.22-1.43-3.64-1.59-3.46-.38-5.35,1.71-5.53,3.42-.13,1.12-.09,1.76,.52,2.35l.93,.54,.27,.19-.27,.12c-.17-.02-1.42-.31-1.9-.49l-.37-.38c-.2-.55-.17-1.52-.09-2.35,.19-1.74,.77-3.17,2.05-4.2"/>
  <path class="cls-1" d="M191.54,120.86c2.16,.45,2.57,.55,3.03,.62,.49,.07,.69-.01,.84-.27l.17-.45,.21-.15,.05,.32c-.09,.48-.32,1.33-.39,1.67-.06,.32-.21,1.14-.32,1.64l-.16,.23-.13-.23,.03-.38c0-.37-.18-.51-.68-.64-.44-.13-.85-.22-3.01-.67l-2.53-.54c-1.39-.29-2.52-.53-3.15-.6-.39-.05-.63,0-.77,.35l-.19,.63-.2,.17-.09-.27c.17-.83,.4-1.68,.48-2.02,.06-.28,.19-1.16,.29-1.65l.2-.22,.11,.24-.04,.44c0,.27,.19,.4,.6,.53,.58,.17,1.73,.41,3.1,.71l2.54,.54"/>
  <path class="cls-1" d="M189.99,127.36c2.12,.66,2.52,.79,2.97,.9,.47,.11,.66,.04,.91-.29l.2-.48,.21-.17,.05,.32c-.2,.65-.47,1.42-.57,1.78-.13,.39-.97,3.09-1.02,3.34l-.08,.54v.22s-.15,.04-.15,.04c-.09-.03-.23-.15-.87-.37l-.89-.36-.2-.2,.2-.04,.55,.07c.27-.03,.49-.06,.75-.65l.65-1.91-.11-.12-3.45-1.07-.17,.04-.62,2.16,.02,.65,.12,.25-.17,.05c-.09-.03-.31-.12-1-.41l-.92-.35-.27-.21,.16-.08,.52,.12c.29,.01,.56-.08,.74-.52l.65-1.91-.12-.12-1.12-.34c-.48-.14-1.65-.52-2.06-.62-.96-.27-1.3,.05-1.68,1.3-.1,.32-.24,.84-.17,1.2,.08,.37,.34,.61,.87,.86l.18,.21h-.37c-.32-.09-1.23-.48-1.5-.63-.34-.2-.31-.31-.16-.77,.27-.92,.52-1.66,.73-2.24,.21-.59,.36-1.05,.48-1.43l.19-.69,.24-.86,.21-.2,.1,.23-.08,.46c-.02,.27,.24,.41,.62,.6,.58,.23,1.69,.57,2.96,.96l2.47,.74"/>
  <path class="cls-1" d="M182.39,134.87c-1.05-.43-1.44-.41-1.63-.25l-.36,.59-.24,.13-.02-.33c.35-.75,.62-1.28,.72-1.49,.06-.11,.27-.69,.53-1.29l.25-.2,.06,.25-.17,.56c-.04,.36,.3,.56,1.45,1.09l7.88,3.62,.37,.41c-.07,.14-.35,.21-.67,.31-.24,.07-3.15,.88-5.88,1.71-1.28,.39-3.86,1.12-4.13,1.2l-.03,.05,5.99,2.53c.81,.34,1.1,.34,1.36,.13l.35-.6,.23-.12v.34c-.28,.62-.6,1.24-.7,1.49-.06,.13-.24,.59-.49,1.16l-.23,.23-.06-.27,.12-.38c.03-.37-.17-.58-.92-.92l-8.36-3.87-.34-.39,.5-.34c1.12-.38,3.43-1.12,5.38-1.73,2.02-.63,4.19-1.16,4.53-1.28v-.04s-5.49-2.3-5.49-2.3"/>
  <path class="cls-1" d="M176.67,145.29c1.74-.42,3.32,.16,4.52,.9,.85,.53,2.16,1.66,2.61,3.39,.32,1.31,.19,2.66-.84,4.28-.41,.7-.72,1.07-1.1,1.51-.33,.37-.64,.68-.89,.98l-.24,.07c-.1-.07-.23-.18-.66-.48-.39-.27-1.08-.71-1.32-.87l-.21-.34,.33,.05c.39,.23,.92,.37,1.42,.29,.64-.11,1.4-.64,2.03-1.65,.59-.97,.75-1.69,.57-2.51-.32-1.32-1.4-2.25-2.6-3-2.95-1.84-5.55-.76-6.47,.7-.6,.97-.84,1.57-.53,2.35,.13,.34,.39,.71,.6,.89l.16,.3-.31-.02c-.14-.1-1.14-.88-1.5-1.26l-.19-.5c.06-.57,.52-1.45,.95-2.14,.92-1.5,2.07-2.54,3.67-2.94"/>
  <path class="cls-1" d="M175.33,157.16c1.74,1.38,2.06,1.61,2.44,1.9,.4,.28,.6,.28,.97,.05l.35-.38,.26-.07-.08,.32c-.41,.51-.94,1.14-1.17,1.43-.25,.32-2.03,2.55-2.17,2.76l-.27,.49-.07,.2-.17-.02c-.08-.05-.17-.23-.68-.67l-.71-.64-.11-.26,.22,.03,.47,.27c.27,.07,.49,.11,.95-.35l1.3-1.54-.05-.15-2.85-2.22-.18-.03-1.35,1.79-.21,.62,.03,.28h-.19c-.07-.07-.25-.23-.77-.75l-.72-.66-.2-.29,.17-.03,.45,.29c.27,.13,.54,.13,.88-.21l1.3-1.55-.08-.15-.93-.72c-.39-.31-1.34-1.08-1.7-1.34-.8-.6-1.22-.42-2.03,.61-.22,.27-.54,.7-.6,1.07-.07,.35,.09,.67,.49,1.11l.09,.25-.34-.12-1.17-1.13c-.25-.3-.17-.39,.13-.77,.6-.76,1.09-1.36,1.5-1.82,.4-.5,.72-.86,.95-1.16l.44-.58,.52-.73,.27-.1v.27l-.24,.38,.36,.78c.46,.43,1.36,1.15,2.42,1.96l2.03,1.6"/>
  <path class="cls-1" d="M38.77,155.56c2,.08,3.72,1.18,4.31,1.74l.04,.33-.28-.06c-.6-.44-1.41-.79-2-.88-1.18-.18-2.37,.06-3.5,.61-1.47,.71-2.02,1.24-3.76,2.63-1.17,.93-5.11,4.19-5.55,4.59-.49,.44-.63,.72-.41,1.21l.34,.53,.05,.31-.36-.16c-.53-.66-1.12-1.48-1.39-1.82-.24-.29-.92-1.04-1.3-1.53l-.09-.35,.3,.12,.35,.31c.34,.29,.67,.18,1.2-.21,.5-.35,.91-.69,3.14-2.48l1.35-1.1c.4-.32,1.23-.99,1.79-1.45,1.99-1.59,3.56-2.42,5.75-2.33"/>
  <path class="cls-1" d="M104.74,10.91c.12-2.89,.14-3.42,.13-4.03,0-.64-.12-.96-.65-1.1l-.63-.09-.26-.19,.36-.16c.85,.05,1.86,.15,2.32,.16,.66,.03,1.59,.01,2.34,.04,2.03,.09,2.71,.92,2.96,1.22,.33,.41,.75,1.28,.7,2.3-.12,2.69-1.88,4.52-4.16,4.42l-.36-.03-.17-.17c.01-.16,.13-.21,.46-.19l.25-.03c.88-.14,1.96-1.25,2.04-3.02,.03-.62,.04-1.89-.82-2.89-.56-.65-1.21-.79-1.58-.82l-.64,.06-.14,.36-.33,7.58c-.07,1.74-.13,3.24-.1,4.08,.03,.52,.1,.94,.6,1.04l.81,.11,.25,.16-.32,.18c-1.07-.05-2.07-.15-2.5-.18-.36,0-1.39,0-2.02-.02l-.33-.2,.27-.14,.58-.06c.34-.05,.42-.46,.51-1.02,.11-.78,.17-2.29,.25-4.04l.15-3.34"/>
  <path class="cls-1" d="M107.61,13.08l-1.26-.05-.02,.38s.96,.06,1.56,.05l-.28-.39"/>
  <path class="cls-1" d="M23.84,146.21c-1.97,1.01-2.34,1.19-2.75,1.43-.42,.24-.51,.43-.45,.84l.19,.49-.04,.26-.25-.19c-.31-.6-.66-1.34-.81-1.68-.25-.47-.75-1.35-1-1.88-.74-1.43-.46-2.24-.36-2.51,.14-.39,.56-1,1.27-1.37,1.83-.95,3.79-.37,4.62,1.26l.16,.34-.07,.22-.36-.29c-.33-.64-1.58-1.15-2.9-.46-.43,.22-1.26,.7-1.58,1.66-.21,.64-.04,1.14,.1,1.4l.31,.46,.29-.03,5.14-2.63c1.21-.62,2.23-1.14,2.77-1.48,.35-.23,.56-.42,.45-.79l-.25-.6,.04-.25,.24,.14c.4,.76,.76,1.6,.92,1.89,.13,.26,.55,.97,.79,1.42l-.02,.29-.24-.11-.25-.37c-.18-.2-.46-.15-.86,.01-.57,.23-1.6,.75-2.79,1.36l-2.29,1.17"/>
  <polyline class="cls-1" points="24.87 144.07 24.25 142.87 24.11 143.35 24.59 144.29 24.87 144.07"/>
</svg>